<svg xmlns="http://www.w3.org/2000/svg" xmlns:xlink="http://www.w3.org/1999/xlink" width="737" zoomAndPan="magnify" viewBox="0 0 552.75 552.75" height="737" preserveAspectRatio="xMidYMid meet" version="1.0"><defs><clipPath id="d7dbdee74e"><path d="M 0 104.976562 L 552.5 104.976562 L 552.5 431 L 0 431 Z M 0 104.976562 " clip-rule="nonzero"/></clipPath></defs><g clip-path="url(#d7dbdee74e)"><path fill="#fff2e2" d="M 6.023438 190.507812 L 99.410156 214.117188 L 99.410156 373.558594 C 99.429688 374.339844 99.539062 375.109375 99.746094 375.867188 C 99.953125 376.621094 100.25 377.34375 100.632812 378.027344 C 101.015625 378.710938 101.476562 379.335938 102.011719 379.90625 C 102.550781 380.476562 103.148438 380.972656 103.808594 381.394531 C 107.019531 383.398438 110.261719 385.339844 113.539062 387.230469 C 116.816406 389.117188 120.125 390.945312 123.464844 392.71875 C 126.804688 394.492188 130.175781 396.207031 133.574219 397.859375 C 136.976562 399.515625 140.40625 401.109375 143.859375 402.648438 C 147.316406 404.183594 150.796875 405.65625 154.304688 407.070312 C 157.8125 408.484375 161.34375 409.839844 164.898438 411.128906 C 168.453125 412.421875 172.027344 413.648438 175.625 414.816406 C 179.222656 415.984375 182.839844 417.085938 186.476562 418.128906 C 190.113281 419.167969 193.765625 420.144531 197.433594 421.058594 C 201.105469 421.972656 204.789062 422.820312 208.488281 423.605469 C 212.1875 424.390625 215.898438 425.109375 219.625 425.765625 C 223.347656 426.421875 227.082031 427.011719 230.828125 427.539062 C 234.574219 428.0625 238.328125 428.523438 242.089844 428.917969 C 245.847656 429.3125 249.617188 429.640625 253.390625 429.902344 C 257.160156 430.167969 260.9375 430.363281 264.71875 430.496094 C 268.496094 430.628906 272.277344 430.695312 276.058594 430.695312 C 279.839844 430.695312 283.621094 430.628906 287.402344 430.496094 C 291.179688 430.363281 294.957031 430.167969 298.730469 429.902344 C 302.5 429.640625 306.269531 429.3125 310.03125 428.917969 C 313.789062 428.523438 317.542969 428.0625 321.289062 427.539062 C 325.035156 427.011719 328.769531 426.421875 332.492188 425.765625 C 336.21875 425.109375 339.929688 424.390625 343.628906 423.605469 C 347.328125 422.820312 351.011719 421.972656 354.683594 421.058594 C 358.351562 420.144531 362.007812 419.167969 365.640625 418.128906 C 369.277344 417.085938 372.894531 415.984375 376.492188 414.816406 C 380.089844 413.648438 383.664062 412.421875 387.21875 411.128906 C 390.773438 409.839844 394.304688 408.484375 397.8125 407.070312 C 401.320312 405.65625 404.800781 404.183594 408.257812 402.648438 C 411.714844 401.109375 415.140625 399.515625 418.542969 397.859375 C 421.941406 396.207031 425.3125 394.492188 428.652344 392.71875 C 431.996094 390.945312 435.304688 389.117188 438.578125 387.230469 C 441.855469 385.339844 445.101562 383.398438 448.308594 381.394531 C 448.96875 380.972656 449.566406 380.476562 450.105469 379.90625 C 450.640625 379.335938 451.101562 378.710938 451.484375 378.027344 C 451.871094 377.34375 452.164062 376.621094 452.371094 375.867188 C 452.578125 375.109375 452.6875 374.339844 452.707031 373.558594 L 452.707031 214.117188 L 502.699219 201.5 L 505.660156 201.5 L 505.660156 245.277344 L 500.59375 245.277344 C 500.015625 245.273438 499.441406 245.320312 498.871094 245.421875 C 498.300781 245.519531 497.746094 245.667969 497.203125 245.871094 C 496.660156 246.070312 496.140625 246.316406 495.640625 246.613281 C 495.144531 246.910156 494.675781 247.246094 494.242188 247.625 C 493.804688 248.003906 493.40625 248.421875 493.042969 248.875 C 492.683594 249.324219 492.367188 249.808594 492.09375 250.316406 C 491.820312 250.828125 491.59375 251.355469 491.414062 251.90625 C 491.238281 252.457031 491.113281 253.019531 491.035156 253.59375 L 483.292969 330.066406 C 483.195312 331.359375 483.355469 332.617188 483.769531 333.84375 C 484.183594 335.074219 484.824219 336.171875 485.683594 337.140625 C 486.546875 338.132812 487.582031 338.898438 488.785156 339.433594 C 489.988281 339.96875 491.25 340.222656 492.566406 340.199219 L 536.535156 340.199219 C 537.1875 340.199219 537.835938 340.132812 538.472656 340.003906 C 539.113281 339.871094 539.734375 339.675781 540.332031 339.417969 C 540.933594 339.160156 541.5 338.84375 542.035156 338.472656 C 542.566406 338.097656 543.058594 337.671875 543.507812 337.199219 C 543.953125 336.722656 544.351562 336.207031 544.691406 335.652344 C 545.035156 335.097656 545.316406 334.511719 545.539062 333.898438 C 545.761719 333.285156 545.921875 332.65625 546.015625 332.011719 C 546.109375 331.363281 546.136719 330.714844 546.09375 330.066406 L 538.351562 253.59375 C 538.277344 253.019531 538.152344 252.457031 537.972656 251.90625 C 537.796875 251.355469 537.570312 250.828125 537.296875 250.316406 C 537.023438 249.808594 536.707031 249.324219 536.347656 248.875 C 535.984375 248.421875 535.585938 248.003906 535.148438 247.625 C 534.710938 247.246094 534.246094 246.90625 533.746094 246.613281 C 533.25 246.316406 532.730469 246.070312 532.1875 245.871094 C 531.644531 245.667969 531.085938 245.519531 530.515625 245.421875 C 529.945312 245.320312 529.371094 245.273438 528.792969 245.277344 L 523.824219 245.277344 L 523.824219 196.242188 L 546.476562 190.507812 C 547.402344 190.171875 548.25 189.707031 549.03125 189.109375 C 549.808594 188.511719 550.480469 187.8125 551.042969 187.007812 C 551.609375 186.203125 552.039062 185.332031 552.332031 184.398438 C 552.628906 183.460938 552.777344 182.503906 552.777344 181.519531 C 552.777344 180.539062 552.628906 179.582031 552.332031 178.644531 C 552.039062 177.707031 551.609375 176.839844 551.042969 176.035156 C 550.480469 175.230469 549.808594 174.53125 549.03125 173.933594 C 548.25 173.335938 547.402344 172.871094 546.476562 172.535156 L 278.542969 105.144531 C 277.015625 104.769531 275.484375 104.769531 273.957031 105.144531 L 6.308594 172.917969 C 5.386719 173.253906 4.535156 173.71875 3.757812 174.316406 C 2.976562 174.914062 2.304688 175.613281 1.742188 176.417969 C 1.179688 177.222656 0.75 178.089844 0.453125 179.027344 C 0.160156 179.964844 0.0117188 180.921875 0.0117188 181.902344 C 0.0117188 182.886719 0.160156 183.84375 0.453125 184.78125 C 0.75 185.714844 1.179688 186.585938 1.742188 187.390625 C 2.304688 188.195312 2.976562 188.894531 3.757812 189.492188 C 4.535156 190.089844 5.386719 190.554688 6.308594 190.890625 Z M 276.25 123.308594 L 506.523438 181.617188 L 501.167969 182.953125 L 276.726562 172.058594 C 276.132812 172.054688 275.539062 172.109375 274.953125 172.21875 C 274.367188 172.328125 273.792969 172.488281 273.238281 172.707031 C 272.683594 172.921875 272.152344 173.1875 271.644531 173.503906 C 271.136719 173.816406 270.664062 174.179688 270.226562 174.582031 C 269.785156 174.984375 269.386719 175.425781 269.03125 175.90625 C 268.675781 176.382812 268.367188 176.890625 268.105469 177.429688 C 267.84375 177.964844 267.632812 178.519531 267.476562 179.097656 C 267.320312 179.671875 267.21875 180.257812 267.167969 180.851562 C 267.117188 181.492188 267.128906 182.128906 267.207031 182.765625 C 267.28125 183.402344 267.421875 184.027344 267.625 184.636719 C 267.824219 185.246094 268.085938 185.828125 268.40625 186.382812 C 268.722656 186.941406 269.09375 187.457031 269.519531 187.941406 C 269.941406 188.421875 270.410156 188.855469 270.921875 189.246094 C 271.433594 189.632812 271.976562 189.964844 272.554688 190.242188 C 273.132812 190.519531 273.734375 190.738281 274.355469 190.894531 C 274.976562 191.050781 275.609375 191.144531 276.25 191.175781 L 439.898438 198.917969 L 276.25 239.734375 L 110.5 197.867188 L 45.976562 181.617188 Z M 276.25 123.308594 " fill-opacity="1" fill-rule="nonzero"/></g></svg>